<?xml version="1.0" encoding="UTF-8"?>
<svg id="Layer_1" data-name="Layer 1" xmlns="http://www.w3.org/2000/svg" viewBox="0 0 1080 1080">
  <defs>
    <style>
      .cls-1 {
        fill: #b1b3b6;
      }

      .cls-1, .cls-2 {
        stroke-width: 0px;
      }

      .cls-2 {
        fill: #fff;
      }
    </style>
  </defs>
  <path class="cls-2" d="M172.05,755.48h-7.35c-.25-5.15-1.72-10.05-4.17-14.22-1.72-2.7-4.17-4.9-7.11-5.88-2.94-.74-5.64-1.23-8.58-.98h-13.24v76.48c0,2.45.25,4.66.98,7.11.74,1.96,2.45,3.19,4.41,3.92,3.19.98,6.62,1.47,10.05,1.47v7.11h-52.7v-7.11c4.41.49,8.82-.49,12.5-2.7,2.21-2.7,3.19-6.13,2.7-9.56v-76.24h-11.03c-3.68,0-7.35.25-10.79.98-3.19.98-5.88,2.94-7.6,5.88-2.45,4.41-3.92,9.32-3.68,14.46h-7.35v-29.66h103.2v28.93"/>
  <path class="cls-2" d="M274.03,795.92l-.74,34.32h-93.15v-7.11c4.41.49,8.82-.49,12.5-2.7,2.21-2.7,3.19-6.13,2.7-9.56v-65.7c0-2.45-.25-4.66-.98-6.86-.74-1.72-2.21-3.19-4.17-3.92-3.19-.98-6.62-1.47-10.05-1.47v-7.11h86.53l1.47,26.97h-7.11c-.98-4.66-2.94-9.07-5.39-12.99-1.72-2.45-4.17-4.17-6.86-4.9-3.92-.74-7.84-.98-11.77-.98h-19.37v37.02h10.54c2.7.25,5.39-.25,8.09-.98,1.72-.49,3.19-1.96,3.68-3.68.98-2.7,1.47-5.64,1.47-8.33h7.35v34.81h-7.11c0-2.94-.49-5.88-1.47-8.58-.74-1.72-2.21-2.94-3.92-3.68-2.7-.74-5.39-.98-8.09-.98h-10.54v24.51c0,3.92,0,6.86.25,9.07.25,1.72.74,3.43,1.72,4.66.98,1.47,2.7,2.45,4.41,2.7,2.94.74,5.64.98,8.58.74h8.33c3.43,0,6.86-.49,10.05-1.47,3.68-1.23,7.11-3.68,9.32-6.86,3.68-5.15,5.88-11.28,6.62-17.65h7.11"/>
  <path class="cls-2" d="M492.2,821.66c-1.96-1.23-3.43-2.7-4.41-4.66-.98-1.96-2.7-5.88-4.9-11.77l-31.87-81.39h-7.35l-30.15,78.93c-1.72,4.41-3.68,8.58-5.88,12.75-1.47,2.45-3.43,4.41-5.88,5.88-.98.49-2.21.98-3.19,1.23-1.96-.25-3.68-.74-5.39-1.47-2.94-1.23-5.39-3.19-7.35-5.39-3.19-3.68-6.37-7.35-9.32-11.52l-25.49-33.34,18.88-21.33c4.17-4.66,7.11-8.09,9.32-10.05,2.21-1.96,4.66-3.68,7.35-4.9,3.19-1.23,6.62-1.96,10.05-1.96v-7.11h-43.14v7.11h3.68c2.45-.25,4.9.25,7.11,1.23,1.23.74,1.96,2.21,1.96,3.68,0,.98-.25,1.96-.74,2.94-.49.74-1.47,2.21-2.94,4.17l-16.42,19.61-14.46-18.88c-2.21-2.45-3.68-5.39-4.66-8.33-.25-1.47.74-2.94,2.21-3.43,2.21-.49,4.41-.74,6.62-.74h3.92v-7.11h-57.12v7.11c3.19,0,6.37.25,9.56,1.23,2.21.74,4.17,1.96,5.88,3.68,1.72,1.72,4.41,5.15,8.33,10.05l25.25,33.09-18.63,21.82c-3.92,4.66-8.09,9.32-12.75,13.24-2.45,2.45-5.39,4.17-8.82,5.39-2.94.98-5.88,1.47-8.82,1.47v7.11h45.84v-6.62c-2.45,0-4.9,0-7.35-.25-1.72-.25-3.19-.74-4.66-1.72-1.23-.98-1.96-2.7-1.96-4.17.74-3.92,2.94-7.35,5.88-10.05l15.93-19.12,16.91,22.31c1.96,1.96,3.19,4.41,4.17,7.11.25,2.21-1.23,4.17-3.19,4.66-2.45.74-4.66.98-7.11.98h-4.9v7.11h88.25v-7.11c-2.94,0-5.64-.49-8.33-1.23-2.45-.98-3.92-3.43-3.43-5.88.25-2.94.98-5.64,2.21-8.33l2.45-6.62h33.83l4.9,12.26c.49,1.47.98,3.19.98,4.66.25,1.96-.98,3.68-2.94,4.17-2.94.74-6.13.98-9.07.98v7.11h49.27v-7.11c-2.94.25-5.64-.25-8.09-1.47ZM426.26,793.47l13.73-36.28,14.46,36.28h-28.19Z"/>
  <path class="cls-2" d="M578.98,799.11c0,3.43-.74,6.86-1.96,10.05-1.47,3.68-3.43,7.11-5.88,10.05-2.94,3.43-6.37,6.13-10.3,7.84-4.41,2.21-9.56,3.19-14.46,3.19-5.64,0-11.03-1.23-16.18-3.43-5.39-2.45-10.05-5.88-13.48-10.54-1.47,3.19-2.45,6.62-3.19,10.3h-7.11v-35.05h6.86c1.23,4.9,2.94,9.56,5.15,14.22,2.21,4.41,5.39,8.33,9.32,11.52,4.17,3.19,9.56,4.9,14.95,4.9,4.41.25,8.82-1.23,12.26-4.17,2.94-2.7,4.66-6.62,4.66-10.54,0-2.21-.49-4.41-1.47-6.37s-2.45-3.43-4.17-4.9c-2.21-1.72-4.9-3.43-7.35-4.66-3.19-1.72-6.62-3.43-10.79-5.15-5.39-2.45-10.54-5.39-15.2-8.82-3.43-2.45-6.62-5.39-9.07-8.58-1.72-2.45-3.19-5.15-4.17-8.09-.74-2.45-1.23-5.15-1.23-7.6,0-4.66,1.23-9.32,3.68-13.48,2.7-4.41,6.37-8.09,10.79-10.79,4.9-2.94,10.79-4.41,16.42-4.17,4.66,0,9.32.98,13.48,3.19,4.41,2.21,8.09,5.15,11.28,8.82,1.23-2.94,1.96-5.88,2.45-8.82h7.11v28.44h-6.86c-4.9-15.44-13.73-23.29-26.23-23.29-3.92-.25-7.84.98-10.79,3.43-2.7,2.21-4.17,5.64-4.17,9.32,0,2.7.74,5.39,2.45,7.6,1.96,2.21,4.17,4.17,6.62,5.64,2.94,1.47,7.35,3.68,13.48,6.62,6.13,2.7,12.01,5.88,17.65,9.32,4.17,2.45,7.84,5.88,10.79,9.81,2.94,4.17,4.66,9.32,4.41,14.46"/>
  <path class="cls-2" d="M738.32,830.24h-49.52v-7.11c2.94,0,6.13-.25,9.07-.98,1.96-.49,2.94-2.21,2.94-4.17,0-1.72-.25-3.19-.98-4.66l-4.9-12.26h-33.83l-2.45,6.62c-1.23,2.7-1.96,5.39-2.21,8.33-.25,2.7,1.23,5.15,3.68,5.88,2.7.98,5.39,1.23,8.33,1.23v7.11h-36.04v-7.11c2.45,0,5.15-.49,7.35-1.72,2.45-1.47,4.41-3.43,5.88-5.88,2.45-4.17,4.41-8.33,5.88-12.75l30.15-78.69h7.11l31.62,81.39c2.21,5.88,3.92,9.56,5.15,11.77.98,1.96,2.7,3.68,4.41,4.66,2.45,1.23,5.15,1.72,8.09,1.72v7.11M692.23,793.96l-14.46-36.28-13.73,36.28h28.19Z"/>
  <path class="cls-2" d="M965.8,830.24h-52.21v-7.11c3.43.25,6.62-.25,10.05-1.47,1.96-.74,3.43-2.21,4.17-3.92.74-2.21.98-4.66.98-7.11v-65.45l-39.47,84.82h-4.9l-39.96-84.82v62.02c0,2.45,0,5.15.25,7.6.25,1.72.74,3.19,1.72,4.41,1.23,1.47,2.7,2.21,4.41,2.7,2.7.74,5.64.98,8.58.98v7.11h-38.49v-7.11c2.94,0,5.88-.25,8.58-.98,1.72-.49,3.19-1.47,4.41-2.7.98-1.23,1.47-2.94,1.72-4.41.25-2.45.25-4.9.25-7.6v-59.08c0-3.19-.25-6.37-.74-9.56-.49-1.96-1.96-3.68-3.68-4.41-3.43-1.23-6.86-1.72-10.54-1.47v-7.11h38.24l34.56,73.54,34.81-73.54h37.26v7.11c-4.41-.49-8.82.49-12.5,2.94-2.21,2.7-3.19,6.13-2.7,9.56v65.45c0,2.21.25,4.66.98,6.86.74,1.96,2.21,3.43,4.17,4.17,3.19.98,6.62,1.47,10.05,1.47v7.11"/>
  <path class="cls-2" d="M129.89,866.52c-1.47,0-2.94.25-4.17.74-.74.49-1.23.98-1.47,1.96-.25,1.23-.25,2.45,0,3.68v15.69c0,2.21,0,4.41-.25,6.62-.25,1.47-.74,3.19-1.72,4.41-1.47,2.7-3.92,4.9-6.62,5.88-2.7.98-5.39,1.72-8.33,1.72-1.96,0-3.92-.25-5.88-.74-2.21-.49-4.17-1.47-5.88-2.45-1.72-1.23-3.19-2.7-4.17-4.66-.49-.98-.98-2.21-1.23-3.19s-.49-1.96-.49-2.94v-21.33c0-1.47-.25-2.7-1.23-3.92-1.47-.98-3.43-1.47-5.15-1.23v-2.94h21.57v2.94c-1.47,0-2.7,0-4.17.49-.74.25-1.47.74-1.72,1.72-.25.98-.49,1.96-.49,2.94v22.55c.25,1.23.49,2.45.74,3.68.74,1.72,1.96,3.19,3.68,4.17,1.72.98,3.92,1.47,5.88,1.47s4.17-.74,5.88-1.72c1.72-.98,3.19-2.45,3.92-4.17.49-1.23.98-2.7,1.23-4.17v-23.78c0-.74-.25-1.23-.74-1.72s-1.23-.98-1.96-1.23c-1.23-.25-2.45-.49-3.68-.25v-2.94h15.93l.49,2.7"/>
  <path class="cls-2" d="M231.37,866.52c-1.47,0-2.94,0-4.41.49-.74.25-1.47.98-1.72,1.72-.25,1.23-.25,2.7-.25,3.92v34.07h-3.19l-28.19-33.34v23.53c0,1.23,0,2.7.25,3.92.25.74.98,1.47,1.72,1.96,1.47.49,2.94.74,4.41.74v2.7h-15.93v-2.94c1.47,0,2.94-.25,4.17-.74.74-.25,1.47-.98,1.72-1.96.25-1.23.25-2.7.25-3.92v-25.74c0-.74-.25-1.72-.74-2.45-.49-.74-.98-1.23-1.72-1.72-.98-.49-2.21-.74-3.43-.74v-2.94h12.5l24.51,28.93v-19.61c0-1.23,0-2.45-.25-3.68-.25-.98-.74-1.72-1.72-1.96-1.23-.49-2.7-.74-4.17-.74v-2.94h16.18v3.43"/>
  <path class="cls-2" d="M307.37,906.23h-21.82v-2.94c1.47,0,2.7,0,4.17-.49.74-.25,1.47-.74,1.72-1.72.25-.98.49-1.96.49-2.94v-26.97c.25-1.47-.25-2.94-1.23-3.92-1.47-.98-3.43-1.47-5.15-1.23v-2.94h21.82v2.94c-1.47,0-2.7,0-4.17.49-.74.25-1.47.74-1.72,1.72-.25.98-.49,1.96-.49,2.94v26.97c0,.98,0,1.96.49,2.94.25.74.98,1.23,1.72,1.72,1.47.49,2.7.74,4.17.49v2.94"/>
  <path class="cls-2" d="M409.34,866.52c-.98,0-1.72.25-2.7.49-.74.25-1.23.74-1.72,1.23-.49.74-.98,1.47-1.47,2.21-.49.98-1.23,2.45-1.96,4.41l-13.97,32.85h-3.19l-14.71-34.32c-.74-1.47-1.23-2.94-2.21-4.41-.49-.74-1.23-1.23-1.96-1.72-1.23-.49-2.45-.49-3.68-.49v-2.94h21.82v2.94c-1.47,0-2.94.25-4.41.49-.74.25-1.23.98-1.23,1.96s.25,2.21.74,3.19l10.05,23.04,9.07-21.57c.49-1.23.98-2.45,1.23-3.92,0-1.47-.49-2.21-1.47-2.7-1.47-.49-2.94-.49-4.41-.49v-2.94h15.93l.25,2.7"/>
  <path class="cls-2" d="M502.49,892.51l-.25,13.97h-38.24v-2.94c1.72.25,3.68-.25,5.15-1.23.74-1.23,1.23-2.45,1.23-3.92v-26.97c0-.98,0-1.96-.25-2.94-.25-.74-.98-1.47-1.72-1.72-1.47-.49-2.7-.74-4.17-.49v-2.94h35.54l.49,11.28h-2.94c-.49-1.96-1.23-3.68-2.21-5.39-.74-.98-1.72-1.72-2.94-1.96-1.47-.25-3.19-.49-4.9-.25h-7.84v15.2h4.41c1.23,0,2.21,0,3.43-.49.74-.25,1.23-.74,1.47-1.47.25-1.23.49-2.21.49-3.43h2.94v14.22h-2.94c0-1.23-.25-2.45-.74-3.43-.25-.74-.98-1.23-1.72-1.47-.98-.25-2.21-.49-3.43-.49h-4.41v13.73c0,.74.25,1.47.74,1.96.49.49,1.23.98,1.72,1.23,1.23.25,2.45.25,3.43.25h3.43c1.47,0,2.7-.25,4.17-.49,1.47-.49,2.94-1.47,3.92-2.94,1.47-2.21,2.45-4.66,2.7-7.11l3.43.25"/>
  <path class="cls-2" d="M604.96,906.23h-11.52c-.49-.74-1.23-1.23-1.72-1.96-.74-.98-1.23-1.96-1.96-3.19l-1.72-2.94-2.94-4.9c-.98-1.47-1.96-2.94-2.94-4.41-.49-.74-1.47-1.23-2.21-1.47-1.47-.25-2.94-.25-4.41-.25h-1.72v11.28c0,.98,0,1.96.25,2.94.25.74.98,1.47,1.72,1.72,1.23.49,2.7.74,4.17.49v2.94h-21.57v-2.94c1.72.25,3.68-.25,5.15-1.23.98-1.23,1.23-2.45,1.23-3.92v-26.97c0-1.47-.25-2.7-.98-3.92-1.47-.98-3.19-1.47-5.15-1.23v-2.94l10.05-.25h8.58c2.21,0,4.17,0,5.88.49,1.47.25,2.94.49,4.41.74,1.72.49,3.19.98,4.41,1.96,1.47.98,2.7,2.21,3.43,3.68.98,1.72,1.47,3.43,1.47,5.15,0,1.47-.25,2.94-.98,4.17-.74,1.47-1.72,2.7-2.94,3.68-1.72,1.23-3.43,1.96-5.39,2.45,1.47.98,2.94,1.96,3.92,3.43.98,1.47,2.7,3.92,5.15,7.35.98,1.72,1.96,3.19,3.19,4.66.74.98,1.47,1.47,2.45,2.21.98.49,1.72.74,2.7.74v2.45M587.07,874.61c.25-2.7-.98-5.39-3.19-6.86-2.45-1.23-5.39-1.72-8.09-1.72h-1.96v17.4h1.96c2.7,0,5.39-.49,8.09-1.72,2.21-.49,3.19-2.94,3.19-7.11h0Z"/>
  <path class="cls-2" d="M691.25,894.47c0,1.47-.25,2.94-.98,4.17-.49,1.47-1.47,2.94-2.45,4.41-1.23,1.47-2.7,2.45-4.41,3.43-1.96.98-3.92,1.23-5.88,1.23-2.45,0-4.66-.49-6.86-1.47-2.21-.98-4.41-2.45-5.88-4.41-.74,1.47-.98,2.94-1.23,4.41h-2.94v-14.71h2.94c.49,1.96,1.23,3.92,2.21,5.88.98,1.96,2.21,3.43,3.92,4.9s3.92,2.21,6.37,1.96c1.96,0,3.68-.49,5.15-1.72,1.96-1.72,2.7-4.66,1.47-7.11-.49-.74-.98-1.47-1.72-1.96-.98-.74-1.96-1.47-3.19-1.96l-4.41-2.21c-2.21-.98-4.41-2.21-6.37-3.68-1.47-.98-2.7-2.21-3.68-3.68-.74-.98-1.47-2.21-1.72-3.43-.25-.98-.49-2.21-.49-3.19,0-1.96.49-4.17,1.47-5.88.98-1.96,2.7-3.43,4.66-4.66,2.21-1.23,4.41-1.72,6.86-1.72,1.96,0,4.17.49,5.88,1.47,1.72.98,3.43,2.21,4.66,3.68.49-1.23.74-2.45.98-3.68h2.94v11.77h-2.94c-2.21-6.62-5.88-9.81-11.03-9.81-1.72,0-3.19.49-4.66,1.47-1.23.98-1.72,2.45-1.72,3.92,0,1.23.25,2.21.98,3.19s1.72,1.72,2.94,2.45c1.23.74,3.19,1.72,5.88,2.94,2.45,1.23,5.15,2.45,7.35,3.92,1.72.98,3.43,2.45,4.66,4.17,1.23,1.72,1.96,3.68,1.72,5.88"/>
  <path class="cls-2" d="M769.2,906.23h-21.82v-2.94c1.47,0,2.7,0,4.17-.49.74-.25,1.47-.74,1.72-1.72.25-.98.49-1.96.49-2.94v-26.97c.25-1.47-.25-2.94-1.23-3.92-1.47-.98-3.43-1.47-5.15-1.23v-2.94h21.82v2.94c-1.47,0-2.7,0-4.17.49-.74.25-1.47.74-1.72,1.72-.25.98-.49,1.96-.49,2.94v26.97c0,.98,0,1.96.49,2.94.25.74.98,1.23,1.72,1.72,1.47.49,2.7.74,4.17.49v2.94"/>
  <path class="cls-2" d="M866.77,875.84h-2.94c0-2.21-.74-4.17-1.72-5.88-.74-.98-1.72-1.96-2.94-2.45-1.23-.25-2.45-.49-3.68-.49h-5.39v31.62c0,.98,0,1.96.25,2.94.25.74.98,1.47,1.72,1.72,1.23.49,2.7.74,4.17.49v2.7h-21.57v-2.94c1.72.25,3.68-.25,5.15-1.23.98-1.23,1.23-2.45,1.23-3.92v-31.62h-4.41c-1.47,0-2.94,0-4.41.49-1.23.25-2.45,1.23-3.19,2.45-.98,1.72-1.47,3.92-1.47,5.88h-2.94v-12.26h42.65l-.49,12.5"/>
  <path class="cls-2" d="M965.8,866.52c-.98,0-1.96.25-2.94.74-.98.49-1.72,1.23-2.21,2.21-.74.98-1.96,2.7-3.43,4.9l-9.07,14.22v10.05c0,.98,0,1.96.25,2.94.25.74.98,1.47,1.72,1.72,1.23.49,2.7.74,4.17.74v2.45h-21.57v-2.94c1.47,0,2.7,0,4.17-.49.74-.25,1.47-.74,1.72-1.47.25-.98.49-1.96.49-2.94v-9.56l-10.79-17.65v-.74c-.49-1.23-1.47-2.21-2.45-2.94-.98-.49-1.96-.74-3.19-.74v-2.94h20.1v2.94h-2.45c-.49,0-.98.25-1.47.49s-.49.74-.49,1.23.25.98.25,1.47.74,1.72,1.72,3.19l6.62,11.28,6.37-10.05c.98-1.47,1.72-2.94,1.96-4.9,0-1.23-.49-2.21-1.23-2.45-1.23-.49-2.45-.49-3.68-.49v-2.94h15.69v2.94"/>
  <path class="cls-2" d="M815.78,804.01l-.49.49c-1.47,2.7-4.41,4.66-7.6,4.66-2.45,0-4.66-.74-6.62-1.96-3.43-2.94-6.37-6.13-8.58-10.05,1.96-3.19,3.92-6.62,5.15-10.3,1.47-4.41,3.92-8.33,6.86-11.77,2.21-1.96,4.66-3.43,7.6-4.17h1.47v-6.62h-29.66v6.37h1.72c6.62.74,7.6,3.68,7.6,5.88-.25,2.45-.74,4.9-1.72,7.11-.98,2.45-2.21,4.66-3.68,6.86l-16.91-23.53c10.79-5.88,16.18-11.77,16.18-18.39,0-4.41-2.21-8.58-5.88-11.03-3.68-2.7-8.09-3.92-12.75-3.92-4.9-.25-9.81,1.72-13.24,5.39-3.43,3.19-5.39,7.6-5.39,12.26.49,6.13,2.45,12.01,6.37,16.91-5.39,3.19-10.05,7.35-14.46,11.77-2.94,3.92-4.66,8.82-4.41,13.73,0,4.41,1.23,8.82,3.68,12.5,2.21,3.43,5.39,6.37,9.07,8.33,3.68,1.96,7.6,2.94,11.77,2.94,8.58-.49,16.42-4.41,22.06-10.79,4.9,6.62,12.26,10.54,20.35,10.79,3.92,0,7.6-1.23,10.54-3.43,2.94-2.21,5.15-5.39,5.88-9.07v-.74l.49-1.72-5.39,1.47ZM767.49,762.09c-3.19-3.68-5.15-8.09-5.88-12.99-.25-2.21.74-4.41,1.96-5.88,2.94-2.94,7.84-2.94,11.03,0,1.47,1.72,2.21,4.17,2.21,6.37,0,4.41-3.19,8.58-9.32,12.5h0ZM753.02,782.2c1.96-2.94,4.66-5.15,7.6-7.11,5.39,7.35,11.77,16.67,19.37,27.7-3.19,3.92-7.84,6.13-12.75,6.37-4.66-.25-8.82-2.21-11.77-5.88-3.19-3.43-5.15-7.84-5.39-12.5,0-3.19.98-6.13,2.94-8.58Z"/>
  <polyline class="cls-2" points="784.65 320.11 727.04 320.11 725.57 323.05 686.1 405.42 646.39 323.05 644.92 320.11 584.12 320.11 584.12 358.35 598.1 358.35 598.1 476.02 583.39 476.02 583.39 514.26 652.52 514.26 652.52 476.02 637.32 476.02 637.32 392.43 681.44 483.62 686.1 492.93 735.13 392.18 735.13 476.02 720.42 476.02 720.42 514.26 789.55 514.26 789.55 476.02 774.35 476.02 774.35 358.35 789.55 358.35 789.55 320.11 784.65 320.11"/>
  <path class="cls-2" d="M441.21,476.02h-15.69l-51.23-118.4h10.05v-38.24h-82.37v38.24h11.28l-51.23,118.16h-21.33v38.24h74.77v-38h-10.54l8.58-19.61h61.28l8.58,19.61h-11.52v38.24h74.77v-38.24h-5.39M357.86,418.17h-28.44l14.22-33.09,14.22,33.09Z"/>
  <polyline class="cls-2" points="301.24 172.29 301.24 294.62 384.34 294.62 384.34 247.55 472.83 247.55 472.83 539.75 426.01 539.75 426.01 623.1 603 623.1 603 539.75 556.18 539.75 556.18 247.55 644.18 247.55 644.18 294.13 727.77 294.13 727.77 172.29 301.24 172.29"/>
  <polygon class="cls-1" points="568.44 574.07 585.84 555.93 585.84 605.45 568.44 588.78 568.44 574.07"/>
  <polygon class="cls-1" points="539.02 557.16 521.61 574.56 521.61 213.23 539.02 230.64 539.02 557.16"/>
  <polygon class="cls-1" points="336.29 206.86 318.4 189.21 702.04 189.21 679.24 206.86 336.29 206.86"/>
  <polygon class="cls-1" points="711.11 277.95 693.7 261.28 693.7 216.66 711.11 198.52 711.11 277.95"/>
  <path class="cls-2" d="M1002.57,897.41h0c1.23-.25,2.21-1.47,2.21-2.7,0-.98-.25-1.72-.98-2.45-.98-.74-2.21-.98-3.68-.98-.98,0-2.21,0-3.19.25v11.28h1.96v-5.15h1.23c1.23-.25,2.21.74,2.45,1.72v.25c0,.98.25,1.96.74,2.94h1.96c-.49-.98-.74-1.96-.74-2.94-.25-.98-.98-1.72-1.96-2.21ZM1000.12,896.67h-1.23v-4.17h1.23c2.21,0,2.7.98,2.7,1.96,0,1.23-1.23,2.21-2.7,2.21h0Z"/>
  <path class="cls-2" d="M1000.61,886.87h0c-5.64,0-10.3,4.66-10.3,10.3s4.66,10.3,10.3,10.3,10.3-4.66,10.3-10.3-4.66-10.3-10.3-10.3h0ZM1000.61,905.74c-4.9-.49-8.33-4.66-8.09-9.32.25-4.41,3.68-7.6,8.09-8.09h0c4.9.49,8.33,4.66,8.09,9.32-.25,4.41-3.68,7.84-8.09,8.09Z"/>
</svg>