<?xml version="1.0" encoding="UTF-8"?>
<svg id="Layer_1" data-name="Layer 1" xmlns="http://www.w3.org/2000/svg" viewBox="0 0 1080 1080">
  <defs>
    <style>
      .cls-1 {
        fill: #b1b3b6;
      }

      .cls-1, .cls-2 {
        stroke-width: 0px;
      }

      .cls-2 {
        fill: #fff;
      }
    </style>
  </defs>
  <rect class="cls-2" x="261.58" y="463.92" width="3.88" height="152.17"/>
  <polygon class="cls-2" points="195.98 515.24 179.28 515.24 178.27 515.24 177.88 516.14 165.74 541.38 153.65 516.14 153.2 515.24 152.24 515.24 136.11 515.24 134.59 515.24 134.59 516.81 134.59 525.41 134.59 526.93 136.11 526.93 138.87 526.93 138.87 563.02 135.89 563.02 134.37 563.02 134.37 564.54 134.37 573.14 134.37 574.66 135.89 574.66 153.99 574.66 155.51 574.66 155.51 573.14 155.51 564.54 155.51 563.02 153.99 563.02 150.84 563.02 150.84 537.44 164.39 565.32 165.74 568.19 167.14 565.32 180.86 537.33 180.86 563.02 177.82 563.02 176.3 563.02 176.3 564.54 176.3 573.14 176.3 574.66 177.82 574.66 195.98 574.66 197.5 574.66 197.5 573.14 197.5 564.54 197.5 563.02 195.98 563.02 192.83 563.02 192.83 526.93 195.98 526.93 197.5 526.93 197.5 525.41 197.5 516.81 197.5 515.24 195.98 515.24"/>
  <path class="cls-2" d="M90.75,562.96h-4.83l-15.68-36.26h3.2v-11.64h-25.3v11.64h3.43l-15.68,36.26h-6.52v11.69h22.88v-11.69h-3.37l2.64-6.07h18.83l2.59,6.01h-3.49v11.69h22.82v-11.64h-1.52ZM65.28,545.26h-8.71l4.38-10.12,4.33,10.12Z"/>
  <polygon class="cls-2" points="176.75 469.99 49.66 469.99 47.91 469.99 47.91 471.73 47.91 505.68 47.91 507.42 49.66 507.42 71.64 507.42 73.38 507.42 73.38 505.68 73.38 493.09 100.47 493.09 100.47 582.58 87.88 582.58 86.14 582.58 86.14 584.32 86.14 606.25 86.14 608.05 87.88 608.05 138.58 608.05 140.33 608.05 140.33 606.25 140.33 584.32 140.33 582.58 138.58 582.58 125.94 582.58 125.94 493.09 152.92 493.09 152.92 505.51 152.92 507.31 154.66 507.31 176.75 507.31 178.55 507.31 178.55 505.51 178.55 471.73 178.55 469.99 176.75 469.99"/>
  <polygon class="cls-1" points="129.76 592.98 135.1 587.47 135.1 602.65 129.76 597.48 129.76 592.98"/>
  <polygon class="cls-1" points="120.77 587.87 115.43 593.15 115.43 482.52 120.77 487.92 120.77 587.87"/>
  <polygon class="cls-1" points="58.71 480.61 53.14 475.21 170.63 475.21 163.66 480.61 58.71 480.61"/>
  <polygon class="cls-1" points="173.49 502.37 168.1 497.25 168.1 483.59 173.49 478.08 173.49 502.37"/>
  <path class="cls-2" d="M406.1,492.81h-5.62c-.13-3.96-1.25-7.83-3.26-11.24-1.31-2.07-3.29-3.62-5.62-4.38-2.18-.59-4.43-.87-6.69-.84h-10.01v59.08c-.09,1.9.16,3.8.73,5.62.65,1.41,1.85,2.49,3.32,2.98,2.46.83,5.05,1.19,7.64,1.07v5.62h-40.3v-5.62c3.34.42,6.71-.34,9.56-2.14,1.64-2.08,2.41-4.73,2.14-7.36v-59.02h-8.54c-2.81-.06-5.62.2-8.38.79-2.34.73-4.34,2.29-5.62,4.38-1.98,3.41-2.97,7.3-2.87,11.24h-5.62v-22.93h79.15v22.77Z"/>
  <path class="cls-2" d="M484.46,523.95l-.67,26.42h-71.5v-5.62c3.34.43,6.72-.33,9.56-2.14,1.64-2.08,2.41-4.73,2.14-7.36v-50.59c.09-1.9-.13-3.8-.67-5.62-.61-1.41-1.77-2.5-3.2-3.04-2.52-.84-5.17-1.2-7.81-1.07v-5.62h66.61l1.07,20.85h-5.62c-.73-3.56-2.17-6.94-4.22-9.95-1.38-1.86-3.37-3.18-5.62-3.71-2.97-.53-5.98-.76-8.99-.67h-14.62v28.39h8.15c2.12.09,4.25-.15,6.3-.73,1.35-.44,2.43-1.48,2.92-2.81.69-2.11,1.07-4.3,1.12-6.52h5.62v26.7h-5.62c-.01-2.23-.41-4.43-1.18-6.52-.55-1.32-1.63-2.34-2.98-2.81-2.03-.57-4.13-.82-6.24-.73h-8.09v26.59c.11,1.31.55,2.57,1.29,3.65.83,1.08,2.03,1.82,3.37,2.08,2.17.51,4.4.74,6.63.67h6.46c2.79.05,5.58-.31,8.26-1.07,2.9-1,5.43-2.86,7.25-5.34,2.81-3.99,4.53-8.64,5-13.49l5.28.06Z"/>
  <path class="cls-2" d="M652.43,543.63c-1.46-.85-2.65-2.1-3.43-3.6-.84-1.57-2.14-4.55-3.88-8.94l-24.51-62.51h-5.62l-23.16,60.65c-1.23,3.4-2.73,6.69-4.5,9.84-1.05,1.93-2.58,3.55-4.44,4.72-.8.42-1.65.72-2.53.9-1.42-.16-2.82-.5-4.16-1.01-2.14-1.01-4.05-2.44-5.62-4.22-2.55-2.79-4.95-5.72-7.2-8.77l-19.56-25.58,14.33-16.47c3.15-3.6,5.62-6.18,7.14-7.76,1.64-1.59,3.54-2.88,5.62-3.82,2.47-1.04,5.13-1.54,7.81-1.46v-5.62h-33.11v5.62h2.75c1.91-.16,3.84.13,5.62.84.99.58,1.55,1.67,1.46,2.81.03.8-.14,1.59-.51,2.3-.34.62-1.12,1.69-2.25,3.15l-12.7,14.78-11.24-14.45c-1.61-1.87-2.84-4.05-3.6-6.41-.17-1.19.54-2.33,1.69-2.7,1.66-.39,3.36-.56,5.06-.51h3.09v-5.62h-43.85v5.62c2.49-.09,4.97.21,7.36.9,1.73.59,3.3,1.59,4.55,2.92,1.29,1.35,3.43,3.93,6.35,7.76l19.34,25.46-14.28,16.86c-3.02,3.65-6.29,7.08-9.78,10.29-1.96,1.83-4.25,3.26-6.75,4.22-2.22.72-4.53,1.1-6.86,1.12v5.62h35.3v-5.62c-1.87.11-3.75.11-5.62,0-1.28-.11-2.51-.58-3.54-1.35-1-.78-1.54-2-1.46-3.26.61-2.95,2.15-5.63,4.38-7.64l12.42-15.18,12.99,16.86c1.47,1.6,2.55,3.53,3.15,5.62.17,1.64-.88,3.17-2.47,3.6-1.82.55-3.72.82-5.62.79h-3.71v5.62h67.85v-5.62c-2.17.04-4.34-.28-6.41-.96-1.86-.67-3-2.54-2.75-4.5.22-2.19.79-4.34,1.69-6.35l1.97-5.23h26.03l3.77,9.5c.46,1.14.71,2.36.73,3.6.14,1.46-.78,2.8-2.19,3.2-2.28.53-4.63.76-6.97.67v5.62h37.83v-5.62c-2.03.26-4.1,0-6.01-.73ZM601.83,522.04l10.57-28.11,11.24,28.11h-21.81Z"/>
  <path class="cls-2" d="M719.15,526.42c-.04,2.64-.58,5.25-1.57,7.7-1.12,2.85-2.71,5.5-4.72,7.81-2.2,2.56-4.92,4.63-7.98,6.07-3.52,1.64-7.36,2.45-11.24,2.36-4.28-.02-8.52-.94-12.42-2.7-4.09-1.8-7.68-4.58-10.46-8.09-1.14,2.52-1.93,5.19-2.36,7.93h-5.34v-26.87h5.34c.91,3.77,2.25,7.43,3.99,10.91,1.78,3.33,4.27,6.23,7.31,8.49,3.22,2.48,7.18,3.79,11.24,3.71,3.47.18,6.87-.99,9.5-3.26,3.58-3.34,4.58-8.62,2.47-13.04-.8-1.44-1.89-2.71-3.2-3.71-1.76-1.36-3.64-2.54-5.62-3.54-2.42-1.24-5.17-2.59-8.26-3.99-4.11-1.86-8.02-4.12-11.69-6.75-2.61-1.86-4.94-4.1-6.91-6.63-1.42-1.85-2.52-3.92-3.26-6.13-.58-1.82-.88-3.71-.9-5.62.04-3.66,1.03-7.24,2.87-10.4,1.97-3.5,4.84-6.42,8.32-8.43,3.84-2.22,8.21-3.35,12.65-3.26,3.65-.02,7.25.83,10.51,2.47,3.34,1.62,6.31,3.92,8.71,6.75.87-2.22,1.51-4.51,1.91-6.86h5.62v21.92h-5.62c-3.75-11.92-10.47-17.88-20.18-17.88-3.04-.15-6.02.83-8.38,2.75-2.08,1.75-3.24,4.36-3.15,7.08-.03,2.13.66,4.22,1.97,5.9,1.42,1.76,3.18,3.21,5.17,4.27,2.14,1.18,5.62,2.92,10.4,5.17,4.65,2.15,9.19,4.53,13.6,7.14,3.22,2,6.02,4.59,8.26,7.64,2.32,3.22,3.52,7.11,3.43,11.07Z"/>
  <path class="cls-2" d="M841.81,550.37h-37.61v-5.62c2.34.08,4.69-.14,6.97-.67,1.41-.4,2.33-1.75,2.19-3.2-.02-1.23-.27-2.45-.73-3.6l-3.82-9.5h-26.03l-1.97,5.23c-.88,2.02-1.43,4.16-1.63,6.35-.25,1.96.9,3.83,2.75,4.5,2.07.67,4.23,1,6.41.96v5.62h-27.66v-5.62c1.95.06,3.88-.37,5.62-1.24,1.86-1.17,3.39-2.79,4.44-4.72,1.76-3.15,3.27-6.44,4.5-9.84l23.16-60.65h5.62l24.45,62.51c1.8,4.38,3.09,7.42,3.88,8.94.78,1.5,1.97,2.75,3.43,3.6,1.91.96,4.05,1.4,6.18,1.29l-.17,5.68ZM806.5,522.26l-11.24-28.11-10.51,28.11h21.75Z"/>
  <path class="cls-2" d="M1016.85,550.37h-40.25v-5.62c2.59.15,5.18-.2,7.64-1.01,1.42-.55,2.55-1.64,3.15-3.04.58-1.81.83-3.72.73-5.62v-50.59l-30.3,65.26h-3.6l-30.69-65.26v47.84c-.12,1.87-.12,3.75,0,5.62.13,1.24.6,2.43,1.35,3.43.91,1.05,2.13,1.77,3.49,2.08,2.15.51,4.36.73,6.58.67v5.62h-29.57v-5.62c2.22.06,4.43-.18,6.58-.73,1.35-.32,2.55-1.07,3.43-2.14.73-1,1.18-2.19,1.29-3.43.11-1.87.11-3.75,0-5.62v-44.86c.06-2.45-.13-4.9-.56-7.31-.38-1.54-1.46-2.81-2.92-3.43-2.59-.94-5.34-1.34-8.09-1.18v-5.62h29.29l27.21,56.89,26.7-56.66h28.72v5.62c-3.34-.42-6.72.33-9.56,2.14-1.63,2.07-2.39,4.69-2.14,7.31v50.59c-.05,1.79.2,3.58.73,5.28.61,1.44,1.79,2.56,3.26,3.09,2.48.84,5.09,1.2,7.7,1.07l-.17,5.23Z"/>
  <path class="cls-2" d="M373.61,578.14c-1.09-.08-2.19.1-3.2.51-.59.29-1.03.82-1.18,1.46-.1.97-.1,1.95,0,2.92v12.2c.1,1.68.1,3.37,0,5.06-.18,1.21-.6,2.38-1.24,3.43-1.1,2.12-2.94,3.76-5.17,4.61-2.04.8-4.21,1.22-6.41,1.24-1.57-.01-3.14-.22-4.67-.62-1.58-.4-3.08-1.06-4.44-1.97-1.36-.89-2.45-2.13-3.15-3.6-.38-.79-.69-1.62-.9-2.47-.21-.77-.34-1.56-.39-2.36v-16.47c.11-1.08-.19-2.17-.84-3.04-1.16-.78-2.56-1.1-3.93-.9v-2.25h16.86v2.25c-1.09-.05-2.17.11-3.2.45-.6.21-1.09.66-1.35,1.24-.25.72-.36,1.48-.34,2.25v13.77c-.08,1.24-.08,2.47,0,3.71.12.96.34,1.9.67,2.81.57,1.33,1.56,2.43,2.81,3.15,1.33.78,2.84,1.18,4.38,1.18,1.67.01,3.32-.42,4.78-1.24,1.36-.72,2.45-1.86,3.09-3.26.45-1.04.75-2.14.9-3.26.07-1.33.07-2.66,0-3.99v-11.86c.04-.79.04-1.57,0-2.36-.19-.53-.52-.99-.96-1.35-.37-.46-.88-.78-1.46-.9-.93-.11-1.88-.11-2.81,0v-2.25h12.14v1.91Z"/>
  <path class="cls-2" d="M451.69,578.14c-1.15-.06-2.29.11-3.37.51-.62.25-1.1.76-1.29,1.41-.11,1.01-.11,2.03,0,3.04v26.25h-2.59l-21.7-25.75v18.27c-.12,1.01-.12,2.03,0,3.04.18.66.66,1.2,1.29,1.46,1.1.4,2.26.58,3.43.51v2.25h-11.97v-2.25c1.09.07,2.19-.11,3.2-.51.61-.27,1.07-.81,1.24-1.46.11-1.01.11-2.03,0-3.04v-19.96c-.05-.63-.23-1.24-.51-1.8-.31-.54-.78-.98-1.35-1.24-.81-.38-1.69-.61-2.59-.67v-2.25h9.67l18.89,22.49v-15.35c.1-.93.1-1.88,0-2.81-.19-.67-.66-1.22-1.29-1.52-1.01-.43-2.11-.62-3.2-.56v-2.25h12.37l-.22,2.19Z"/>
  <path class="cls-2" d="M510.26,609h-16.86v-2.25c1.07.03,2.13-.12,3.15-.45.61-.18,1.13-.61,1.41-1.18.25-.74.37-1.52.34-2.3v-20.8c.11-1.09-.21-2.18-.9-3.04-1.19-.75-2.6-1.07-3.99-.9v-2.25h16.86v2.25c-1.08-.05-2.17.08-3.2.39-.61.18-1.12.61-1.41,1.18-.25.74-.37,1.52-.34,2.3v20.8c-.03.76.09,1.53.34,2.25.25.58.74,1.03,1.35,1.24,1.05.36,2.15.52,3.26.45v2.3Z"/>
  <path class="cls-2" d="M588.57,578.14c-.69.01-1.37.13-2.02.34-.6.15-1.14.46-1.57.9-.44.52-.82,1.08-1.12,1.69-.39.73-.9,1.86-1.57,3.37l-10.79,25.18h-2.25l-11.24-26.42c-.47-1.18-1.01-2.32-1.63-3.43-.37-.59-.92-1.05-1.57-1.29-.94-.3-1.93-.44-2.92-.39v-2.25h16.86v2.25c-1.12.02-2.23.15-3.32.39-.61.21-.99.82-.9,1.46.03.82.24,1.63.62,2.36l7.59,17.71,7.03-16.53c.46-.94.76-1.94.9-2.98,0-1.07-.39-1.69-1.12-1.97-1.08-.31-2.19-.47-3.32-.45v-2.25h12.25l.11,2.3Z"/>
  <path class="cls-2" d="M660.24,598.15l-.28,10.91h-29.51v-2.25c1.38.16,2.76-.16,3.93-.9.65-.87.95-1.95.84-3.04v-20.8c.11-.73.11-1.47,0-2.19-.25-.59-.74-1.04-1.35-1.24-1.03-.35-2.12-.5-3.2-.45v-2.25h27.38l.39,8.6h-2.25c-.3-1.47-.89-2.87-1.74-4.1-.56-.75-1.35-1.28-2.25-1.52-1.22-.23-2.47-.32-3.71-.28h-6.24v11.69h3.37c.87.04,1.74-.05,2.59-.28.55-.19.99-.63,1.18-1.18.28-.87.43-1.78.45-2.7h2.59v11.24h-2.25c0-.92-.18-1.84-.51-2.7-.22-.54-.68-.95-1.24-1.12-.84-.24-1.71-.33-2.59-.28h-3.43v10.62c.05.55.25,1.07.56,1.52.35.45.85.77,1.41.9.91.11,1.84.11,2.75,0h2.64c1.08,0,2.16-.15,3.2-.45,1.2-.41,2.24-1.17,2.98-2.19,1.17-1.66,1.88-3.6,2.08-5.62l2.19.06Z"/>
  <path class="cls-2" d="M739.11,609h-8.83c-.45-.49-.87-1.02-1.24-1.57-.51-.67-1.01-1.46-1.57-2.42l-1.41-2.3-2.25-3.71c-.69-1.19-1.46-2.34-2.3-3.43-.44-.57-1.05-.98-1.74-1.18-1.12-.13-2.25-.13-3.37,0h-1.24v8.66c-.04.74.06,1.48.28,2.19.24.59.74,1.05,1.35,1.24,1.01.35,2.08.5,3.15.45v2.25h-16.86v-2.25c1.38.2,2.78-.12,3.93-.9.66-.86.96-1.95.84-3.04v-20.97c.1-1.08-.2-2.16-.84-3.04-1.16-.78-2.56-1.1-3.93-.9v-2.3h14.28l4.61.28c1.14.1,2.26.29,3.37.56,1.24.3,2.42.82,3.49,1.52,1.1.72,2.02,1.68,2.7,2.81.7,1.23,1.04,2.63,1.01,4.05.01,1.1-.22,2.2-.67,3.2-.52,1.12-1.31,2.08-2.3,2.81-1.27.9-2.7,1.55-4.22,1.91,1.16.67,2.19,1.55,3.04,2.59.79,1.01,2.14,2.92,3.93,5.62.77,1.23,1.61,2.42,2.53,3.54.51.66,1.14,1.21,1.86,1.63.68.3,1.4.49,2.14.56l.28,2.14ZM725.5,585c.22-2.05-.71-4.06-2.42-5.23-1.96-.94-4.12-1.38-6.3-1.29h-1.57v13.32h1.57c2.12.07,4.23-.34,6.18-1.18,1.57-1.07,2.53-2.98,2.53-5.62Z"/>
  <path class="cls-2" d="M805.66,599.5c-.03,1.12-.26,2.22-.67,3.26-.47,1.21-1.13,2.33-1.97,3.32-.94,1.07-2.09,1.93-3.37,2.53-1.46.68-3.05,1.03-4.67,1.01-1.81-.03-3.59-.43-5.23-1.18-1.72-.77-3.23-1.94-4.38-3.43-.48,1.08-.82,2.21-1.01,3.37h-2.25v-11.24h2.25c.39,1.59.96,3.14,1.69,4.61.72,1.45,1.75,2.72,3.04,3.71,1.37,1.06,3.05,1.61,4.78,1.57,1.45.08,2.89-.4,3.99-1.35,1.56-1.43,2-3.72,1.07-5.62-.34-.61-.8-1.15-1.35-1.57-.76-.57-1.57-1.08-2.42-1.52l-3.49-1.63c-1.74-.78-3.4-1.75-4.95-2.87-1.11-.79-2.09-1.73-2.92-2.81-.58-.79-1.03-1.66-1.35-2.59-.25-.8-.39-1.63-.39-2.47,0-1.54.41-3.05,1.18-4.38.85-1.47,2.07-2.69,3.54-3.54,1.62-.93,3.47-1.4,5.34-1.35,1.54-.01,3.06.33,4.44,1.01,1.4.67,2.64,1.63,3.65,2.81.36-.93.63-1.89.79-2.87h2.3v9.28h-2.3c-1.61-5.06-4.44-7.59-8.49-7.59-1.29-.06-2.55.36-3.54,1.18-.88.74-1.38,1.83-1.35,2.98-.02.92.28,1.81.84,2.53.61.74,1.35,1.35,2.19,1.8.9.51,2.36,1.24,4.38,2.19,1.93.91,3.8,1.92,5.62,3.04,1.35.84,2.53,1.93,3.49,3.2.99,1.33,1.52,2.95,1.52,4.61Z"/>
  <path class="cls-2" d="M865.58,609h-16.86v-2.25c1.09.04,2.17-.11,3.2-.45.61-.18,1.13-.61,1.41-1.18.25-.74.37-1.52.34-2.3v-20.8c.11-1.09-.21-2.18-.9-3.04-1.2-.77-2.63-1.08-4.05-.9v-2.25h16.86v2.25c-1.06-.05-2.13.09-3.15.39-.61.18-1.12.61-1.41,1.18-.24.74-.35,1.52-.34,2.3v20.8c-.02.76.09,1.53.34,2.25.26.58.75,1.03,1.35,1.24,1.03.35,2.12.51,3.2.45v2.3Z"/>
  <path class="cls-2" d="M940.68,585.34h-2.3c-.06-1.61-.53-3.17-1.35-4.55-.52-.84-1.31-1.48-2.25-1.8-.9-.25-1.82-.36-2.75-.34h-4.16v24.23c-.03.76.06,1.52.28,2.25.25.59.74,1.04,1.35,1.24,1.01.35,2.08.5,3.15.45v2.25h-16.86v-2.25c1.38.2,2.78-.12,3.93-.9.69-.85,1.01-1.94.9-3.04v-24.28h-3.49c-1.15-.01-2.3.1-3.43.34-1,.29-1.86.93-2.42,1.8-.81,1.38-1.22,2.95-1.18,4.55h-2.3v-9.33h32.72l.17,9.39Z"/>
  <path class="cls-2" d="M1016.85,578.14c-.78.05-1.55.26-2.25.62-.69.44-1.28,1.01-1.74,1.69-.62.79-1.52,2.02-2.64,3.82l-6.97,10.79v7.81c-.03.72.06,1.45.28,2.14.23.58.7,1.03,1.29,1.24,1.02.4,2.11.57,3.2.51v2.25h-16.86v-2.25c1.07.03,2.13-.12,3.15-.45.61-.18,1.13-.61,1.41-1.18.25-.74.37-1.52.34-2.3v-7.36l-8.32-13.83v-.34h0c-.47-.89-1.12-1.68-1.91-2.3-.76-.41-1.61-.62-2.47-.62v-2.25h15.51v2.25h-1.86c-.4.03-.79.17-1.12.39-.26.13-.46.35-.56.62,0,.39.11.77.28,1.12.41.85.86,1.67,1.35,2.47l5.17,8.71,4.95-7.76c.82-1.09,1.36-2.36,1.57-3.71,0-1.01-.34-1.63-1.01-1.91-.89-.29-1.82-.43-2.75-.39v-2.25h12.03l-.06,2.47Z"/>
  <path class="cls-2" d="M904.71,530.19h-3.32l-.28.45c-1.11,2.11-3.24,3.47-5.62,3.6-1.81-.02-3.58-.59-5.06-1.63-2.6-2.2-4.86-4.77-6.69-7.64,1.59-2.51,2.95-5.16,4.05-7.93,1.16-3.36,2.97-6.46,5.34-9.11,1.59-1.5,3.52-2.6,5.62-3.2h1.12v-4.78h-22.49v4.95h1.35c5.12.62,5.62,2.75,5.62,4.55-.14,1.94-.62,3.84-1.41,5.62-.76,1.87-1.7,3.66-2.81,5.34l-12.99-17.99c8.21-4.44,12.42-9.22,12.42-14.11.04-3.45-1.7-6.68-4.61-8.54-2.87-2-6.28-3.06-9.78-3.04-3.86-.1-7.59,1.4-10.29,4.16-2.59,2.48-4.07,5.91-4.1,9.5.31,4.73,1.99,9.26,4.83,13.04-4.15,2.59-7.93,5.73-11.24,9.33-2.36,3.01-3.59,6.75-3.49,10.57-.05,3.42.9,6.79,2.75,9.67,3.58,5.42,9.64,8.69,16.13,8.71,6.53-.35,12.63-3.38,16.86-8.38,3.68,5.06,9.48,8.15,15.74,8.38,2.93.06,5.79-.85,8.15-2.59,2.33-1.67,3.98-4.13,4.67-6.91v-.62l.34-1.29-.84-.11ZM864.12,497.87c-2.37-2.87-3.9-6.33-4.44-10.01-.07-1.63.49-3.22,1.57-4.44,2.33-2.33,6.1-2.33,8.43,0,0,0,0,0,0,0,1.14,1.39,1.72,3.15,1.63,4.95.34,3.32-2.42,6.69-7.14,9.5h-.06ZM858.84,507.71c4.16,5.62,9.16,12.7,14.84,21.3-2.42,2.95-5.97,4.74-9.78,4.95-3.55-.1-6.87-1.74-9.11-4.5-2.56-2.56-4.05-6-4.16-9.61.09-2.43.92-4.78,2.36-6.75,1.61-2.16,3.61-3.99,5.9-5.4h-.06Z"/>
  <path class="cls-2" d="M1042.82,593.54c4.41.09,7.9,3.74,7.81,8.15s-3.74,7.9-8.15,7.81c-4.36-.09-7.84-3.67-7.81-8.03-.06-4.31,3.38-7.86,7.7-7.93.08,0,.15,0,.23,0h.22ZM1042.82,594.78c-3.72-.19-6.89,2.68-7.07,6.4-.19,3.72,2.68,6.89,6.4,7.07,3.72.19,6.89-2.68,7.07-6.4,0-.11,0-.22,0-.33.12-3.6-2.69-6.62-6.29-6.74-.04,0-.08,0-.12,0ZM1041.36,606.02h-1.41v-8.77c.84-.06,1.69-.06,2.53,0,.97-.06,1.93.18,2.75.67.97.83,1.08,2.28.25,3.25-.31.37-.74.63-1.21.74h0c.79,0,1.29.84,1.46,2.14.07.76.26,1.49.56,2.19h-1.46c-.34-.71-.55-1.47-.62-2.25-.02-.9-.76-1.62-1.66-1.6-.08,0-.17,0-.25.02h-1.01l.06,3.6ZM1041.36,601.13h1.01c1.18,0,2.14-.45,2.14-1.52s-.56-1.52-2.14-1.52h-1.01v3.04Z"/>
</svg>